<?xml version="1.0" encoding="utf-8"?>
<!-- Generator: Adobe Illustrator 27.5.0, SVG Export Plug-In . SVG Version: 6.00 Build 0)  -->
<svg version="1.1" xmlns="http://www.w3.org/2000/svg" xmlns:xlink="http://www.w3.org/1999/xlink" x="0px" y="0px"
	 viewBox="0 0 3710 3710" style="enable-background:new 0 0 3710 3710;" xml:space="preserve">
<style type="text/css">
	.st0{display:none;}
	.st1{display:inline;}
	.st2{fill:#FFFFFF;}
	.st3{fill:#F4F7FA;}
	.st4{opacity:0.5;clip-path:url(#SVGID_00000016759617377161082860000011549755519545613244_);}
	.st5{opacity:0.5;clip-path:url(#SVGID_00000114759737507541300640000002717888390288067714_);}
	.st6{fill:url(#SVGID_00000085945043187949265420000004278534621185551256_);}
	.st7{fill:url(#SVGID_00000116934514433593273800000012151179739461921460_);}
	.st8{fill:url(#SVGID_00000106868254502783609030000014881213979192352406_);}
	.st9{fill:#D8DEE8;}
	.st10{fill:url(#SVGID_00000158708021624383682380000001878265156780107446_);}
	.st11{fill:url(#SVGID_00000146487197565213676340000000976979381529497240_);}
	.st12{fill:url(#SVGID_00000130621972372315634110000009609584497287581087_);}
	.st13{fill:url(#SVGID_00000017506687709562053520000017698607462457421229_);}
	.st14{fill:url(#SVGID_00000007387776261169426270000016272351898126596015_);}
	.st15{fill:url(#SVGID_00000051359078994682987140000004710602821913469365_);}
	.st16{fill:url(#SVGID_00000047057664275283239710000003933693324591962248_);}
	.st17{fill:url(#SVGID_00000034091847878930616990000011687105262040594062_);}
	.st18{fill:url(#SVGID_00000133500733854490594570000018166999047226768830_);}
	.st19{fill:url(#SVGID_00000008130306228079941360000012536246622623248785_);}
	.st20{opacity:0.5;fill:#FFFFFF;}
	.st21{fill:url(#SVGID_00000049195355889209594740000006226203852065164191_);}
	.st22{opacity:0.5;}
	.st23{fill:url(#SVGID_00000064315925795726721920000017783435649758220458_);}
	.st24{fill:url(#SVGID_00000147200007024417129320000014016065879556971172_);}
	.st25{fill:url(#SVGID_00000049212863019643466930000004456504192686505869_);}
	.st26{fill:url(#SVGID_00000154415906390307057640000008130176523565001090_);}
	.st27{fill:url(#SVGID_00000131334765062821382990000016525116140713759901_);}
	.st28{opacity:0.3;fill:url(#SVGID_00000008136914617754150150000010955196605416716193_);}
	.st29{fill:url(#SVGID_00000016790689720937291200000015069697664649427849_);}
	.st30{fill:url(#SVGID_00000119093839312397033380000011170633603086413194_);}
	.st31{opacity:0.3;fill:url(#SVGID_00000076568620940796838980000017394996570428350131_);}
	.st32{fill:url(#SVGID_00000169557811782577735210000017717229922070890413_);}
	.st33{fill:url(#SVGID_00000068677190007363041660000000034232984334516637_);}
	.st34{fill:url(#SVGID_00000150797377117971562430000014233132034949482379_);}
	.st35{fill:url(#SVGID_00000035493112015665230380000010603438343009491614_);}
	.st36{fill:url(#SVGID_00000119830529124446018780000014575342890863151783_);}
	.st37{fill:url(#SVGID_00000140735274690133139600000018435642916581464721_);}
	.st38{fill:url(#SVGID_00000056429334732301305620000011049201488694430383_);}
	.st39{fill:url(#SVGID_00000044172105811247011060000011325610333670261634_);}
	.st40{fill:url(#SVGID_00000076593406168988863160000014486154919512050058_);}
	.st41{fill:url(#SVGID_00000013871087674939089390000013441778609389383581_);}
	.st42{fill:url(#SVGID_00000130629045889080504960000011351904324520987579_);}
	.st43{fill:url(#SVGID_00000032650180666914874280000015668107984525430414_);}
	.st44{fill:url(#SVGID_00000150814078875568373620000009498711751016035209_);}
</style>
<g id="Background" class="st0">
	<g class="st1">
		<g>
			<rect class="st2" width="3710" height="3710"/>
		</g>
	</g>
</g>
<g id="Illustration">
	<g>
		<path class="st3" d="M1584.2,525.6c0,0-1003.6,43.6-1060.6,925.8C466.7,2333.5,203.4,3172.8,844,3222.9s2142.5,147.4,2356-378.1
			C3413.5,2319.3,3520.3,340.5,1584.2,525.6z"/>
		<g>
			<g>
				<g>
					<defs>
						<path id="SVGID_1_" d="M1832.6,2786.5c-61.9-144.5-131.5-367.3-95.5-624.6c41.4-295.4,184.3-366.4,290-687.6
							c150.9-458.5-91.9-759.7,92.6-912c90-74.3,240.5-87.5,339.2-29.6c281.4,165.4,280.9,993.4-111.1,1350.9
							c-177.3,161.7-344.7,159-470.8,359.2C1765.5,2419.8,1794.6,2637.7,1832.6,2786.5z"/>
					</defs>
					
						<linearGradient id="SVGID_00000156585071666838804140000011712514045639713922_" gradientUnits="userSpaceOnUse" x1="2511.0249" y1="803.3223" x2="1815.7971" y2="1922.8422">
						<stop  offset="3.597120e-03" style="stop-color:#E38DDD"/>
						<stop  offset="1" style="stop-color:#9571F6"/>
					</linearGradient>
					
						<use xlink:href="#SVGID_1_"  style="overflow:visible;fill:url(#SVGID_00000156585071666838804140000011712514045639713922_);"/>
					<clipPath id="SVGID_00000081637284900062347740000004911092278421940135_">
						<use xlink:href="#SVGID_1_"  style="overflow:visible;"/>
					</clipPath>
					<g style="opacity:0.5;clip-path:url(#SVGID_00000081637284900062347740000004911092278421940135_);">
						<path class="st2" d="M1771.1,2414.9l-7-1.1c10.5-64.3,26.6-128,47.8-189.3c48.9-141.1,109.3-221.5,185.8-323.2
							c49.6-66,105.9-140.9,169.2-246.6c118.4-197.7,154.4-266.6,182.5-374.7c55.7-214.2,28-399.4,6.5-490.7
							c-30.4-129.6-85.4-250.6-163.5-359.7l5.8-4.1c78.6,109.9,133.9,231.7,164.6,362.2c21.6,92,49.5,278.5-6.5,494.1
							c-28.3,109-64.5,178.2-183.3,376.6c-63.5,106-119.9,181-169.6,247.2c-76.1,101.3-136.3,181.3-184.8,321.3
							C1797.5,2287.7,1781.5,2351,1771.1,2414.9z"/>
						<path class="st2" d="M2377.5,1132.7l-0.6-5.8c-16.1-152.3-122.3-242.5-208.5-291.3c-93.8-53.1-185-70.3-185.9-70.5l1.3-7
							c0.9,0.2,93.1,17.5,188,71.2c86.6,49.1,193,139.2,211.6,290.9c17.4-12.6,78.8-60.3,131-139.5c56.5-85.6,113.6-226.7,65.1-413
							l6.9-1.8c49.2,188.9-8.8,332.1-66.2,418.9c-62.1,94.1-137,144.2-137.7,144.7L2377.5,1132.7z"/>
						<path class="st2" d="M2355.6,1627.6c-0.6,0-1.2,0-1.8,0c-87-0.3-151.4-22.9-152.1-23.1l-2.8-1l0.5-2.9
							c26.1-153.3-17.6-260.7-58.9-323.8c-44.8-68.4-96.5-101.1-97-101.4l3.8-6c0.5,0.3,53.3,33.6,99,103.2
							c41.8,63.8,86.1,172,60.7,326.2c13.2,4.3,71.5,21.6,147.1,21.8c79,0.1,193.9-18.6,292.2-110l4.8,5.2
							C2551.8,1608,2436,1627.6,2355.6,1627.6z"/>
						<path class="st2" d="M2204.8,1930.7c-28.1,0-52.5-2.6-72.9-6.3c-74.2-13.4-113.2-42.6-114.8-43.9l-2-1.5l0.8-2.4
							c27.7-82.5,9.2-187.2-11.2-260.6c-22.2-79.7-51.3-140.6-51.6-141.2l6.4-3.1c1.2,2.4,116,243.8,64,404.6
							c8.9,6.1,46.8,29.8,110.2,41.2c67.1,12,177.4,12.2,321.4-55.3l3,6.4C2355.8,1916.5,2270.3,1930.7,2204.8,1930.7z"/>
					</g>
				</g>
			</g>
			<g>
				<g>
					<defs>
						<path id="SVGID_00000106140245437959748970000005346321994316293799_" d="M1342.6,2956.7c-16.7-124.2-22.7-317.5,83-487.1
							c184.5-295.8,501.3-186.4,817.1-499.9c254.7-252.8,182.9-457.3,461.7-622.1c46.7-27.6,293.4-179.6,470.5-78.3
							c99.8,57.1,133.2,169.1,139.5,190.2c94.8,318-240.6,801.3-665.3,1014.3c-244,122.4-320.2,77.7-747.4,216.2
							C1650.7,2771.4,1460.8,2880.2,1342.6,2956.7z"/>
					</defs>
					
						<linearGradient id="SVGID_00000147929724921854102380000010571438995833250999_" gradientUnits="userSpaceOnUse" x1="2602.7317" y1="1373.1469" x2="2037.8801" y2="3058.4458">
						<stop  offset="0" style="stop-color:#AA80F9"/>
						<stop  offset="0.9964" style="stop-color:#6165D7"/>
					</linearGradient>
					
						<use xlink:href="#SVGID_00000106140245437959748970000005346321994316293799_"  style="overflow:visible;fill:url(#SVGID_00000147929724921854102380000010571438995833250999_);"/>
					<clipPath id="SVGID_00000005984136244895791760000010358455767746597534_">
						<use xlink:href="#SVGID_00000106140245437959748970000005346321994316293799_"  style="overflow:visible;"/>
					</clipPath>
					<g style="opacity:0.5;clip-path:url(#SVGID_00000005984136244895791760000010358455767746597534_);">
						<path class="st2" d="M1303.3,3104.6l-6.9-1.7c70.4-293.9,193.2-489.1,364.9-580.3c84.1-44.7,150.2-50.1,220.1-56
							c74.9-6.2,152.4-12.7,256-71.2c100.7-56.9,137.9-113.5,185.1-185.1c42.5-64.6,95.4-145.1,211.9-250.9
							c102.1-92.7,175.7-135.3,240.7-172.9c70.2-40.6,125.6-72.7,191-153.4c106.9-131.8,165.9-303.2,175.2-509.3l7.1,0.3
							c-9.4,207.7-68.9,380.5-176.8,513.5c-66.3,81.7-122.2,114-193,155c-64.6,37.4-137.9,79.8-239.5,172
							c-115.8,105.2-168.5,185.2-210.8,249.5c-47.6,72.4-85.3,129.7-187.5,187.4c-105,59.3-183.3,65.8-258.9,72.1
							c-69.2,5.7-134.5,11.2-217.3,55.1C1494.8,2619.1,1373.2,2812.8,1303.3,3104.6z"/>
						<path class="st2" d="M2799.1,1811.2c-16.6,0-33.5-0.5-50.7-1.5l-4.8-0.3l1.6-4.5c0.4-1,37.2-103.5,55.5-226.2
							c16.8-112.8,20.9-266.2-54.9-356.6l5.5-4.6c42.8,51,87.4,155.3,56.5,362.3c-16.2,108.8-47,201.8-54.3,223
							c223.3,12.2,392-67.5,494.5-136.8c111.8-75.6,170.9-155.3,171.5-156.1l5.7,4.2c-0.6,0.8-60.4,81.5-173.3,157.8
							C3155.8,1737,3001.7,1811.2,2799.1,1811.2z"/>
						<path class="st2" d="M2810,2161.1c-46.1,0-88.5-3.2-125.8-7.9c-156.9-19.8-262.2-70.1-263.2-70.6l-2.8-1.3l0.9-2.9
							c65.3-211.7,22.4-517.1,21.9-520.2l7-1c0.4,3.1,43.2,307.2-21.3,520.3c17.5,8,116.8,50.8,258.6,68.7
							c143.6,18.1,361.6,13.6,583.9-110.8l3.5,6.2C3106.5,2134.6,2942.6,2161.1,2810,2161.1z"/>
						<path class="st2" d="M2610.9,2654.4c-221-1.8-389.7-52.8-492.2-95.3c-111.3-46.1-171.1-92.4-171.7-92.9l-3-2.3l2.5-2.8
							c167.8-192.8,114.4-521.4,113.9-524.7l7-1.2c0.1,0.8,14,84.5,6.8,191.1c-6.7,97.6-32.9,234.8-119.8,336.7
							c13.3,9.8,70.8,49.8,167.3,89.8c101.9,42.2,269.6,92.8,489.3,94.7L2610.9,2654.4z"/>
					</g>
				</g>
			</g>
			<g>
				
					<linearGradient id="SVGID_00000101824668103895942650000002840443328468830856_" gradientUnits="userSpaceOnUse" x1="2176.009" y1="2155.0605" x2="367.5146" y2="3640.6116" gradientTransform="matrix(0.9891 0.1467 -0.1467 0.9891 1072.6627 -205.924)">
					<stop  offset="3.597000e-03" style="stop-color:#F36F56"/>
					<stop  offset="1" style="stop-color:#FFC444"/>
				</linearGradient>
				<path style="fill:url(#SVGID_00000101824668103895942650000002840443328468830856_);" d="M1490.9,2984.6
					c58.6-61.2,156.1-152,295.1-232.5c247.2-143.1,378.8-110.3,470-243c94.4-137.4-1.9-237.5,112.9-392.7
					c9.7-13,133.6-176.1,277.8-150.8c100.9,17.7,157.6,118,184.2,165.1c103.2,182.7,119.7,487.4-61.3,672.9
					c-171.5,175.8-433.8,156-517.2,149.2c-146.3-12-189.4-60.1-337.3-68.1C1735.3,2875,1586.3,2934.7,1490.9,2984.6z"/>
			</g>
		</g>
		<g>
			<g>
				
					<linearGradient id="SVGID_00000044158487359238522400000010283642019931379110_" gradientUnits="userSpaceOnUse" x1="1351.787" y1="1917.6615" x2="881.4355" y2="1968.9723">
					<stop  offset="0" style="stop-color:#444B8C"/>
					<stop  offset="0.9964" style="stop-color:#26264F"/>
				</linearGradient>
				<path style="fill:url(#SVGID_00000044158487359238522400000010283642019931379110_);" d="M1913.4,732.6L2200,3114.3
					c4.3,35.7-20.3,67.7-54.8,71.1l-1193.5,131c-73.1,4.5-113.1-32.8-117.7-70.8L533.2,713.6c-4.5-37.8,31.4-72,104.8-72L1842.3,667
					C1877.2,667.6,1909.1,697.1,1913.4,732.6z"/>
				
					<linearGradient id="SVGID_00000103252205925034966360000014432253783260978840_" gradientUnits="userSpaceOnUse" x1="1766.2109" y1="732.0469" x2="603.1682" y2="4691.5337">
					<stop  offset="0" style="stop-color:#444B8C"/>
					<stop  offset="0.9964" style="stop-color:#26264F"/>
				</linearGradient>
				<path style="fill:url(#SVGID_00000103252205925034966360000014432253783260978840_);" d="M1967.1,728.5l288.1,2393.6
					c4.3,35.9-20.4,68.1-55,71.5L962.9,3316.9c-38.8,3.9-74.3-24.2-78.9-62.4L581.5,709.2c-4.5-38,24-68.5,63.2-67.8l1251,21.1
					C1930.8,663.1,1962.8,692.8,1967.1,728.5z"/>
				<path class="st9" d="M1943.6,860.6l267,2219.4c4,33.5-19.1,63.5-51.5,66.7L995.5,3259.7c-36.1,3.5-69.1-22.7-73.3-58.2
					L642.6,850.3c-4.2-35.3,22.2-63.9,58.7-63.6l1175.6,12.5C1909.6,799.6,1939.6,827.2,1943.6,860.6z"/>
				
					<linearGradient id="SVGID_00000054974289503241899310000006321370287667936178_" gradientUnits="userSpaceOnUse" x1="1330.3915" y1="634.5215" x2="-36.5002" y2="4336.519">
					<stop  offset="0" style="stop-color:#FFC444"/>
					<stop  offset="0.9964" style="stop-color:#F36F56"/>
				</linearGradient>
				<path style="fill:url(#SVGID_00000054974289503241899310000006321370287667936178_);" d="M1319.6,726.9
					c1.5,12.7-7.6,22.9-20.4,22.8c-12.8-0.2-24.5-10.6-26-23.4c-1.5-12.8,7.7-23,20.5-22.8C1306.5,703.7,1318.1,714.1,1319.6,726.9z
					"/>
				<g>
					<path class="st2" d="M1742.5,2350.3c-238.2-440.4-594.1-572.3-701.2-1026.2c-57.9-245.4-18.5-480.2,48-675.2l-444.5-7.5
						c-39.2-0.7-67.7,29.8-63.2,67.8l302.5,2545.2c4.5,38.2,40.1,66.2,78.9,62.4l972.7-96.8
						C1942.8,2825.4,1848.7,2546.7,1742.5,2350.3z"/>
				</g>
			</g>
			<g>
				
					<linearGradient id="SVGID_00000005228250216349139070000000038204681050736523_" gradientUnits="userSpaceOnUse" x1="1573.9767" y1="724.8171" x2="757.248" y2="2774.645">
					<stop  offset="0" style="stop-color:#311944"/>
					<stop  offset="1" style="stop-color:#6B3976"/>
				</linearGradient>
				<path style="fill:url(#SVGID_00000005228250216349139070000000038204681050736523_);" d="M2001.4,890L843,904.8
					c-40.6,0.5-69.6,34-64.7,74.8l22.9,192.3c4.9,40.8,41.7,73.1,82.3,72.2l1157.1-25.9c37.9-0.8,64.7-33.4,60-72.7l-22.1-185.3
					C2073.8,920.9,2039.3,889.5,2001.4,890z"/>
				
					<linearGradient id="SVGID_00000034808786964606594500000004684304426470362755_" gradientUnits="userSpaceOnUse" x1="1861.2487" y1="742.3642" x2="1044.5225" y2="2792.1858">
					<stop  offset="0" style="stop-color:#311944"/>
					<stop  offset="1" style="stop-color:#6B3976"/>
				</linearGradient>
				<path style="fill:url(#SVGID_00000034808786964606594500000004684304426470362755_);" d="M2152.6,1240.3l-1156.8,28.5
					c-40.5,1-69.5,34.9-64.6,75.6l22.9,192.3c4.9,40.8,41.7,72.7,82.2,71.3l1155.5-39.5c37.8-1.3,64.6-34.2,59.9-73.5l-22.1-185.3
					C2224.8,1270.5,2190.4,1239.4,2152.6,1240.3z"/>
				
					<linearGradient id="SVGID_00000150817622765324367060000011808587967177361556_" gradientUnits="userSpaceOnUse" x1="2306.0295" y1="1016.4923" x2="1489.3009" y2="3066.3198">
					<stop  offset="0" style="stop-color:#311944"/>
					<stop  offset="1" style="stop-color:#6B3976"/>
				</linearGradient>
				<path style="fill:url(#SVGID_00000150817622765324367060000011808587967177361556_);" d="M2170.6,2308.8l-1152.7,62.4
					c-40.4,2.2-69.2,37-64.4,77.8l71.4,598.9c4.9,40.8,41.5,71.3,81.8,68.3l1149.8-86.6c37.6-2.8,64.3-37,59.6-76.2l-68.8-577.2
					C2242.6,2336.9,2208.3,2306.7,2170.6,2308.8z"/>
				
					<linearGradient id="SVGID_00000025436907667110431220000013148772202536989597_" gradientUnits="userSpaceOnUse" x1="1699.9917" y1="775.0231" x2="883.2653" y2="2824.8455">
					<stop  offset="0" style="stop-color:#311944"/>
					<stop  offset="1" style="stop-color:#6B3976"/>
				</linearGradient>
				<path style="fill:url(#SVGID_00000025436907667110431220000013148772202536989597_);" d="M1007.1,2281.1l470.2-24.3
					c39.2-2,67.1-36.1,62.3-76.2l-44.6-374c-4.8-40.1-40.5-71.4-79.8-69.9l-471,17.3c-40.5,1.5-69.4,35.7-64.5,76.5l45.4,380.6
					C930,2251.9,966.7,2283.2,1007.1,2281.1z"/>
				
					<linearGradient id="SVGID_00000123423090573728912810000008352180429809315716_" gradientUnits="userSpaceOnUse" x1="2287.3113" y1="1009.0344" x2="1470.5835" y2="3058.8599">
					<stop  offset="0" style="stop-color:#311944"/>
					<stop  offset="1" style="stop-color:#6B3976"/>
				</linearGradient>
				<path style="fill:url(#SVGID_00000123423090573728912810000008352180429809315716_);" d="M2099.4,1711.6l-452.7,16.6
					c-38.9,1.4-66.6,35-61.8,74.9l44.5,373c4.8,40,40.2,70.7,79,68.7l451.9-23.3c37.7-1.9,64.5-35.4,59.8-74.6l-43.7-366.7
					C2171.5,1741,2137.2,1710.2,2099.4,1711.6z"/>
				
					<linearGradient id="SVGID_00000021832615799259805450000018403656445296908212_" gradientUnits="userSpaceOnUse" x1="693.6213" y1="4029.7583" x2="1077.9619" y2="2524.4219">
					<stop  offset="3.597000e-03" style="stop-color:#F36F56"/>
					<stop  offset="1" style="stop-color:#FFC444"/>
				</linearGradient>
				<path style="fill:url(#SVGID_00000021832615799259805450000018403656445296908212_);" d="M2015.6,880.6L857.2,895.5
					c-40.6,0.5-69.6,34-64.7,74.8l22.9,192.3c4.9,40.8,41.7,73.1,82.3,72.2l1157.1-25.9c37.9-0.8,64.7-33.4,60-72.7l-22.1-185.3
					C2088,911.6,2053.5,880.2,2015.6,880.6z"/>
				
					<linearGradient id="SVGID_00000180330984488288439180000000832277489945898148_" gradientUnits="userSpaceOnUse" x1="1875.4183" y1="733.0319" x2="1058.6924" y2="2782.8533">
					<stop  offset="0" style="stop-color:#FF9085"/>
					<stop  offset="1" style="stop-color:#FB6FBB"/>
				</linearGradient>
				<path style="fill:url(#SVGID_00000180330984488288439180000000832277489945898148_);" d="M2166.7,1231L1010,1259.4
					c-40.5,1-69.5,34.9-64.6,75.6l22.9,192.3c4.9,40.8,41.7,72.7,82.2,71.3l1155.5-39.5c37.8-1.3,64.6-34.2,59.9-73.5l-22.1-185.3
					C2239,1261.1,2204.6,1230,2166.7,1231z"/>
				
					<linearGradient id="SVGID_00000139997841142328511440000000752177967326449332_" gradientUnits="userSpaceOnUse" x1="1269.7975" y1="4176.8711" x2="1654.1395" y2="2671.5291">
					<stop  offset="3.597000e-03" style="stop-color:#F36F56"/>
					<stop  offset="1" style="stop-color:#FFC444"/>
				</linearGradient>
				<path style="fill:url(#SVGID_00000139997841142328511440000000752177967326449332_);" d="M2184.7,2299.4L1032,2361.9
					c-40.4,2.2-69.2,37-64.4,77.8l71.4,598.9c4.9,40.8,41.5,71.3,81.8,68.3l1149.8-86.6c37.6-2.8,64.3-37,59.6-76.2l-68.8-577.2
					C2256.8,2327.6,2222.5,2297.4,2184.7,2299.4z"/>
				
					<linearGradient id="SVGID_00000046317677640592051050000009783205468724571789_" gradientUnits="userSpaceOnUse" x1="703.9816" y1="4032.406" x2="1088.3224" y2="2527.0691">
					<stop  offset="3.597000e-03" style="stop-color:#F36F56"/>
					<stop  offset="1" style="stop-color:#FFC444"/>
				</linearGradient>
				<path style="fill:url(#SVGID_00000046317677640592051050000009783205468724571789_);" d="M1021.3,2271.8l470.2-24.3
					c39.2-2,67.1-36.1,62.3-76.2l-44.6-374c-4.8-40.1-40.5-71.4-79.8-69.9l-471,17.3c-40.5,1.5-69.4,35.7-64.5,76.5l45.4,380.6
					C944.1,2242.5,980.9,2273.9,1021.3,2271.8z"/>
				<path class="st20" d="M1021.3,2271.8l470.2-24.3c39.2-2,67.1-36.1,62.3-76.2l-44.6-374c-4.8-40.1-40.5-71.4-79.8-69.9l-471,17.3
					c-40.5,1.5-69.4,35.7-64.5,76.5l45.4,380.6C944.1,2242.5,980.9,2273.9,1021.3,2271.8z"/>
				
					<linearGradient id="SVGID_00000069358258711578772540000008473805944422671762_" gradientUnits="userSpaceOnUse" x1="1346.9911" y1="4196.5815" x2="1731.332" y2="2691.2441">
					<stop  offset="3.597000e-03" style="stop-color:#F36F56"/>
					<stop  offset="1" style="stop-color:#FFC444"/>
				</linearGradient>
				<path style="fill:url(#SVGID_00000069358258711578772540000008473805944422671762_);" d="M2113.5,1702.3l-452.7,16.6
					c-38.9,1.4-66.6,35-61.8,74.9l44.5,373c4.8,40,40.2,70.7,79,68.7l451.9-23.3c37.7-1.9,64.5-35.4,59.8-74.6l-43.7-366.7
					C2185.7,1731.6,2151.3,1700.9,2113.5,1702.3z"/>
				<g class="st22">
					<path class="st2" d="M1010,1259.4c-40.5,1-69.5,34.9-64.6,75.6l22.9,192.3c4.9,40.8,41.7,72.7,82.2,71.3l812-27.7
						c-87.3-121.1-200.6-214.7-270.2-325.8L1010,1259.4z"/>
				</g>
				<g class="st22">
					<path class="st2" d="M1699.2,2325.7l-667.1,36.1c-40.4,2.2-69.2,37-64.4,77.8l71.4,598.9c4.9,40.8,41.5,71.3,81.8,68.3
						l517.1-38.9c-37.7-94.6-62-198-63.3-308.8C1572.4,2573.8,1635.1,2444.6,1699.2,2325.7z"/>
				</g>
				<g class="st22">
					<path class="st2" d="M1825.5,1857c-8.3-52.2-23-99.3-42.1-142.6l-122.6,4.5c-38.9,1.4-66.6,35-61.8,74.9l44.5,373
						c4.8,40,40.2,70.7,79,68.7l25.9-1.3C1806,2123.2,1850,2010.6,1825.5,1857z"/>
				</g>
				<g class="st22">
					<path class="st2" d="M1377.1,1024.2c3.8-48.9,16.2-94.3,33.9-135.8l-553.8,7.1c-40.6,0.5-69.6,34-64.7,74.8l22.9,192.3
						c4.9,40.8,41.7,73.1,82.3,72.2l519.9-11.6C1387.8,1164.5,1371.2,1100.2,1377.1,1024.2z"/>
				</g>
			</g>
		</g>
		<g>
			
				<linearGradient id="SVGID_00000168106236377799402460000000701083767715866043_" gradientUnits="userSpaceOnUse" x1="-881.0076" y1="3482.9036" x2="-965.6866" y2="3203.6909" gradientTransform="matrix(-0.9952 9.700000e-02 9.700000e-02 0.9952 1418.2478 -49.8622)">
				<stop  offset="0" style="stop-color:#444B8C"/>
				<stop  offset="0.9964" style="stop-color:#26264F"/>
			</linearGradient>
			<path style="fill:url(#SVGID_00000168106236377799402460000000701083767715866043_);" d="M2701.9,3188.2
				c10.1,16.9,8.3,24.7,6.4,28.2c-5.5,10.3-21.4,2.3-60.6,10.3c-4.6,0.9-13.4,2.9-24.6,1.2c-9.7-1.4-21.3-5.6-21-8.1
				c0.1-0.9,1.8-1.4,2.4-1.6c10.8-3.3,77.8-30.1,77.8-30.1L2701.9,3188.2z"/>
			
				<linearGradient id="SVGID_00000080916555046000044090000011526861527800947101_" gradientUnits="userSpaceOnUse" x1="-954.0093" y1="3428.5383" x2="-954.0093" y2="2979.9456" gradientTransform="matrix(-0.9952 9.700000e-02 9.700000e-02 0.9952 1418.2478 -49.8622)">
				<stop  offset="0" style="stop-color:#FFC444"/>
				<stop  offset="0.9964" style="stop-color:#F36F56"/>
			</linearGradient>
			<path style="fill:url(#SVGID_00000080916555046000044090000011526861527800947101_);" d="M2703.9,3149l-2.9,39.9
				c0,0-15.9,13.4-21.6-0.8c-4.1-10.2-6.3-38.3-6.3-38.3L2703.9,3149z"/>
			
				<linearGradient id="SVGID_00000017497488491245773020000007582210168605346463_" gradientUnits="userSpaceOnUse" x1="-788.8385" y1="3428.5339" x2="-788.8385" y2="2979.9417" gradientTransform="matrix(-0.9952 9.700000e-02 9.700000e-02 0.9952 1418.2478 -49.8622)">
				<stop  offset="0" style="stop-color:#FFC444"/>
				<stop  offset="0.9964" style="stop-color:#F36F56"/>
			</linearGradient>
			<polygon style="fill:url(#SVGID_00000017497488491245773020000007582210168605346463_);" points="2505.8,3185.2 2526.2,3229.2 
				2550,3223.3 2540.9,3181.8 			"/>
			
				<linearGradient id="SVGID_00000123404968229980921130000000969283214420655513_" gradientUnits="userSpaceOnUse" x1="-757.6465" y1="3445.4917" x2="-842.3277" y2="3166.2722" gradientTransform="matrix(-0.9952 9.700000e-02 9.700000e-02 0.9952 1418.2478 -49.8622)">
				<stop  offset="0" style="stop-color:#444B8C"/>
				<stop  offset="0.9964" style="stop-color:#26264F"/>
			</linearGradient>
			<path style="fill:url(#SVGID_00000123404968229980921130000000969283214420655513_);" d="M2535.8,3253.5
				c10.5-14.8,21.1-14.4,22.4-24.1c1-7.6-4.3-16.4-11.5-19.3c-10.1-4.1-21.3,4.5-23.8,6.5c-17.1,13.3-10.6,31.2-27,40.6
				c-3.3,1.9-8.6,4-13.9,9.9c-2.2,2.5-7.8,8.6-6.1,12.4c2,4.4,12.7,3.3,22.9,2.3c12.2-1.2,18.4-1.8,23.9-6
				C2530.6,3270,2527.7,3264.9,2535.8,3253.5z"/>
			
				<linearGradient id="SVGID_00000013181176120146119770000001369747653309211784_" gradientUnits="userSpaceOnUse" x1="-992.8098" y1="2460.5742" x2="-1034.0065" y2="3387.5005" gradientTransform="matrix(-0.9952 9.700000e-02 9.700000e-02 0.9952 1418.2478 -49.8622)">
				<stop  offset="0" style="stop-color:#311944"/>
				<stop  offset="1" style="stop-color:#893976"/>
			</linearGradient>
			<path style="fill:url(#SVGID_00000013181176120146119770000001369747653309211784_);" d="M2754.4,2196.3
				c3.2,92-3.4,171.2-13,236.2c-10.3,69.9-18.1,82.4-19.7,130.4c-3.5,104.4,30.9,117.2,44.3,234.2c14.8,129.2-13.3,234.3-24.4,274.4
				c-9.7,35.1-20.4,63.6-28.5,83.4c-11.2,11.1-29.7,8.2-49,5.5c-14.3-117.1-30-227.2-44.3-344.3c-33.7-175.4-67.4-350.8-101.1-526.2
				C2597.2,2258.8,2675.8,2227.6,2754.4,2196.3z"/>
			
				<linearGradient id="SVGID_00000106148621954052417080000012031999807573005965_" gradientUnits="userSpaceOnUse" x1="-992.8098" y1="2460.5742" x2="-1034.0065" y2="3387.5005" gradientTransform="matrix(-0.9952 9.700000e-02 9.700000e-02 0.9952 1418.2478 -49.8622)">
				<stop  offset="0" style="stop-color:#311944"/>
				<stop  offset="1" style="stop-color:#893976"/>
			</linearGradient>
			<path style="opacity:0.3;fill:url(#SVGID_00000106148621954052417080000012031999807573005965_);" d="M2664.1,3160.5
				c-14.3-117.1-30-227.2-44.3-344.3c-33.7-175.4-67.4-350.8-101.1-526.2c78.6-31.2,157.2-62.4,235.8-93.7c0.2,6.1,0.3,12,0.4,18
				c-106.5,104.7-123.7,183.5-119.3,236.2c5.3,64,42.3,93.5,41.2,186.8c-0.8,66.7-20,79.6-16.3,139.5
				c4.8,77.2,40.6,118.5,59.5,162.1c18.3,42.1,27.6,102.8,2.9,191.5c-3.4,9.2-6.6,17.5-9.5,24.6
				C2701.9,3166.1,2683.5,3163.2,2664.1,3160.5z"/>
			
				<linearGradient id="SVGID_00000033336714602517385060000015923061507355054271_" gradientUnits="userSpaceOnUse" x1="-364.7722" y1="2854.8962" x2="-1120.0688" y2="2820.564" gradientTransform="matrix(-0.9952 9.700000e-02 9.700000e-02 0.9952 1418.2478 -49.8622)">
				<stop  offset="0" style="stop-color:#311944"/>
				<stop  offset="1" style="stop-color:#893976"/>
			</linearGradient>
			<path style="fill:url(#SVGID_00000033336714602517385060000015923061507355054271_);" d="M2617.8,2293.6
				c-52.8,103.2-80.7,183.6-95.5,233.1c-9,30.2-16.9,61.6-16.7,102c0.3,49.6,12.6,89.6,22.7,115c14.5,32.5,28.1,70.7,37.8,114.1
				c31.6,140.9,5.7,262-16.2,332.1c-13.9,6.2-27.9,12.3-41.8,18.5c-37.9-88.3-85.4-214-123.6-370.3
				c-20.9-85.3-36.9-152.3-42.3-238.3c-5.7-90.7-1.7-234.9,61.9-410.9C2475.4,2223.9,2546.6,2258.8,2617.8,2293.6z"/>
			
				<linearGradient id="SVGID_00000050628348974313553590000001743362491053032072_" gradientUnits="userSpaceOnUse" x1="-1482.6344" y1="3052.8042" x2="-947.0695" y2="1908.4352" gradientTransform="matrix(-0.9952 9.700000e-02 9.700000e-02 0.9952 1418.2478 -49.8622)">
				<stop  offset="0" style="stop-color:#FF9085"/>
				<stop  offset="1" style="stop-color:#FB6FBB"/>
			</linearGradient>
			<path style="fill:url(#SVGID_00000050628348974313553590000001743362491053032072_);" d="M2536.3,1510.6
				c-89.7,21.2-157.7,41.7-185.6,91.1c-29.4,52.2,24.6,86.7,45.5,195.9c32,167.1-61,236.1-22.6,403.9c12.9,56.6,35.1,99.6,50.1,125
				c30.8,22.1,79.4,51.8,143.9,70c93.9,26.5,138.1,5,262.2,4.4c203-1,236.9,55.8,326.1,14.1c90.1-42.2,150.9-144.9,128.7-185.7
				c-13.3-24.5-49.3-6.5-104.3-34.1c-70.9-35.7-62.8-90.8-121.2-134.1c-83.9-62.2-156.4,10.4-228.2-43.8
				c-72.6-54.7-89.8-197.8-65.7-285c15.7-57,12.3-117.7,23-175.8c0.9-4.8,1.3-12.5-2.1-20.9c-13.3-32.2-74-34.8-119.7-36.3
				C2596.4,1496.8,2543.6,1508.9,2536.3,1510.6z"/>
			
				<linearGradient id="SVGID_00000094618907349347471590000003352572558654781599_" gradientUnits="userSpaceOnUse" x1="3412.9648" y1="2127.9521" x2="3831.271" y2="2988.1318" gradientTransform="matrix(0.9633 -0.2686 0.2686 0.9633 -1594.4952 513.6125)">
				<stop  offset="0" style="stop-color:#FF9085"/>
				<stop  offset="1" style="stop-color:#FB6FBB"/>
			</linearGradient>
			<path style="opacity:0.3;fill:url(#SVGID_00000094618907349347471590000003352572558654781599_);" d="M3141.4,2351.7
				c-29.2-16.9-17.3-70.8-60.5-96.3c-40.1-23.7-68,12.3-125.9-1.6c-74.2-17.8-74.7-88.1-145.8-106.2c-51.1-13-64.3,20-136.5,25.8
				c-72.1,5.9-168.6-18.1-233.3-90.9c-27.5-30.9-43.9-64.8-53.6-96.4c-15.4,63.6-32.7,125.2-12.1,215.3
				c12.9,56.6,35.1,99.6,50.1,125c30.8,22.1,79.4,51.8,143.9,70c93.9,26.5,138.1,5,262.2,4.4c203-1,236.9,55.8,326.1,14.1
				c57.6-27,103.1-78.6,122.7-123C3202.3,2355,3162.5,2364,3141.4,2351.7z"/>
			
				<linearGradient id="SVGID_00000072267848185142476080000016846391757178473917_" gradientUnits="userSpaceOnUse" x1="-892.4797" y1="1568.2089" x2="-989.0917" y2="1724.4929" gradientTransform="matrix(-0.9952 9.700000e-02 9.700000e-02 0.9952 1418.2478 -49.8622)">
				<stop  offset="0" style="stop-color:#FFC444"/>
				<stop  offset="0.9964" style="stop-color:#F36F56"/>
			</linearGradient>
			<path style="fill:url(#SVGID_00000072267848185142476080000016846391757178473917_);" d="M2474.2,1357c0,0-22.1,48.4-21.6,81.5
				c0.5,33,37.5,28.3,37.5,28.3l-0.1,20.8c-0.1,17.8-10.6,33.9-26.9,41l-14.3,6.3c0,0,96.9,14.6,146.9-25.6l-15.1-0.5
				c-21.4-0.8-39.4-16.5-42.9-37.7l-1.5-8.8C2536,1462.3,2546.3,1358.7,2474.2,1357z"/>
			<g>
				
					<linearGradient id="SVGID_00000124153227893190383320000007986634220141526674_" gradientUnits="userSpaceOnUse" x1="-532.6527" y1="1810.1689" x2="-727.3921" y2="2125.1885" gradientTransform="matrix(-0.9952 9.700000e-02 9.700000e-02 0.9952 1418.2478 -49.8622)">
					<stop  offset="0" style="stop-color:#444B8C"/>
					<stop  offset="0.9964" style="stop-color:#26264F"/>
				</linearGradient>
				<path style="fill:url(#SVGID_00000124153227893190383320000007986634220141526674_);" d="M2365.7,1888.6l-140.1-253.7
					c-1.7-3.1-5.3-4.8-8.8-4l-204.3,43.3c-5.5,1.2-8.2,7.3-5.3,12.1l163,273.1c2,3.3,6,4.8,9.6,3.5l180-60.8L2365.7,1888.6z"/>
				<path class="st2" d="M2330.5,1859.4L2217.1,1654c-1.4-2.5-4.3-3.9-7.1-3.3l-165.4,35c-4.4,0.9-6.6,5.9-4.3,9.8l132,221.1
					c1.6,2.7,4.8,3.9,7.8,2.9l145.8-49.2L2330.5,1859.4z"/>
				
					<linearGradient id="SVGID_00000091719123438103023460000002093498352921859210_" gradientUnits="userSpaceOnUse" x1="-552.5447" y1="1789.9617" x2="-506.1969" y2="1693.8328" gradientTransform="matrix(-0.9952 9.700000e-02 9.700000e-02 0.9952 1418.2478 -49.8622)">
					<stop  offset="3.597000e-03" style="stop-color:#F36F56"/>
					<stop  offset="1" style="stop-color:#FFC444"/>
				</linearGradient>
				<path style="fill:url(#SVGID_00000091719123438103023460000002093498352921859210_);" d="M2182.4,1655.6l-9-16.5
					c-1.3-2.3-3.8-3.5-6.4-3l-85.1,17.3c-3.9,0.8-6,5.2-4,8.7l10,17.9c1.3,2.3,3.9,3.5,6.5,2.9l84-18.7
					C2182.3,1663.4,2184.3,1659.1,2182.4,1655.6z"/>
				
					<linearGradient id="SVGID_00000169548195220883519780000004494523855883815054_" gradientUnits="userSpaceOnUse" x1="-594.5181" y1="1791.7115" x2="-435.7238" y2="1791.7115" gradientTransform="matrix(-0.9966 8.330000e-02 8.330000e-02 0.9966 1481.9579 -39.0876)">
					<stop  offset="0" style="stop-color:#444B8C"/>
					<stop  offset="0.9964" style="stop-color:#26264F"/>
				</linearGradient>
				<path style="fill:url(#SVGID_00000169548195220883519780000004494523855883815054_);" d="M2070,1723.1c0.1,0,0.3,0,0.4-0.1
					l149.8-32.1c1.9-0.4,3-2.2,2.6-4.1c-0.4-1.9-2.3-3-4.1-2.6l-149.8,32.1c-1.9,0.4-3,2.2-2.6,4.1
					C2066.7,1722.1,2068.3,1723.2,2070,1723.1z"/>
				
					<linearGradient id="SVGID_00000116230803716932709940000005387570364984235681_" gradientUnits="userSpaceOnUse" x1="-601.5453" y1="1806.3114" x2="-443.5211" y2="1806.3114" gradientTransform="matrix(-0.9966 8.330000e-02 8.330000e-02 0.9966 1481.9579 -39.0876)">
					<stop  offset="0" style="stop-color:#444B8C"/>
					<stop  offset="0.9964" style="stop-color:#26264F"/>
				</linearGradient>
				<path style="fill:url(#SVGID_00000116230803716932709940000005387570364984235681_);" d="M2079.1,1737.7c0.1,0,0.3,0,0.4-0.1
					l148.9-33.5c1.9-0.4,3-2.2,2.6-4.1c-0.4-1.8-2.2-3-4.1-2.6l-148.9,33.5c-1.9,0.4-3,2.2-2.6,4.1
					C2075.8,1736.8,2077.4,1737.9,2079.1,1737.7z"/>
				
					<linearGradient id="SVGID_00000027565041691462732530000006678996359398209972_" gradientUnits="userSpaceOnUse" x1="-608.8698" y1="1834.0504" x2="-519.5756" y2="1834.0504" gradientTransform="matrix(-0.9966 8.330000e-02 8.330000e-02 0.9966 1481.9579 -39.0876)">
					<stop  offset="0" style="stop-color:#444B8C"/>
					<stop  offset="0.9964" style="stop-color:#26264F"/>
				</linearGradient>
				<path style="fill:url(#SVGID_00000027565041691462732530000006678996359398209972_);" d="M2156.9,1755.4c0.2,0,0.3,0,0.5-0.1
					l81-20.5c1.8-0.5,3-2.3,2.5-4.2c-0.5-1.8-2.4-2.9-4.2-2.5l-81,20.5c-1.8,0.5-3,2.3-2.5,4.2
					C2153.6,1754.5,2155.2,1755.6,2156.9,1755.4z"/>
				
					<linearGradient id="SVGID_00000173153531411667855340000013037603094142080903_" gradientUnits="userSpaceOnUse" x1="-618.2911" y1="1855.314" x2="-528.997" y2="1855.314" gradientTransform="matrix(-0.9966 8.330000e-02 8.330000e-02 0.9966 1481.9579 -39.0876)">
					<stop  offset="0" style="stop-color:#444B8C"/>
					<stop  offset="0.9964" style="stop-color:#26264F"/>
				</linearGradient>
				<path style="fill:url(#SVGID_00000173153531411667855340000013037603094142080903_);" d="M2168,1775.8c0.2,0,0.3,0,0.5-0.1
					l81-20.5c1.8-0.5,3-2.3,2.5-4.2c-0.5-1.8-2.4-2.9-4.2-2.5l-81,20.5c-1.8,0.5-3,2.3-2.5,4.2
					C2164.8,1774.9,2166.4,1776,2168,1775.8z"/>
			</g>
			
				<linearGradient id="SVGID_00000174594128101951992930000017770322817880255147_" gradientUnits="userSpaceOnUse" x1="-491.4536" y1="1934.6611" x2="-538.1801" y2="2010.248" gradientTransform="matrix(-0.9952 9.700000e-02 9.700000e-02 0.9952 1418.2478 -49.8622)">
				<stop  offset="0" style="stop-color:#FFC444"/>
				<stop  offset="0.9964" style="stop-color:#F36F56"/>
			</linearGradient>
			<path style="fill:url(#SVGID_00000174594128101951992930000017770322817880255147_);" d="M2130.3,1892.5c0,0-35.6-20.1-40.8-35.9
				c-5.3-15.8-6.8-46.2-6.8-46.2l23.2,41.1c0,0,9.2-3.5,12.2-17.9c2.9-14.4,10.9-2.1,9,8.8
				C2125.1,1853.3,2130.3,1892.5,2130.3,1892.5z"/>
			
				<linearGradient id="SVGID_00000078040607474691973410000002272900971214765222_" gradientUnits="userSpaceOnUse" x1="-1242.2706" y1="3165.2471" x2="-706.7224" y2="2020.9135" gradientTransform="matrix(-0.9952 9.700000e-02 9.700000e-02 0.9952 1418.2478 -49.8622)">
				<stop  offset="0" style="stop-color:#FF9085"/>
				<stop  offset="1" style="stop-color:#FB6FBB"/>
			</linearGradient>
			<path style="fill:url(#SVGID_00000078040607474691973410000002272900971214765222_);" d="M2365.5,1584.4
				c-16.9,12.3-42.1,33.5-63.2,66.2c-60.1,92.8-26.1,183.6-79.1,221.1c-15.2,10.7-42.5,20.7-94.5,7.1l-18.5,11.9
				c0,0-13.6,122.3,132.8,114.6c146.4-7.7,204-195.3,204-195.3L2365.5,1584.4z"/>
			
				<linearGradient id="SVGID_00000010997695377243069030000000407238063991028625_" gradientUnits="userSpaceOnUse" x1="-1864.2992" y1="3152.9148" x2="-998.3637" y2="1302.6257" gradientTransform="matrix(-0.9952 9.700000e-02 9.700000e-02 0.9952 1418.2478 -49.8622)">
				<stop  offset="0" style="stop-color:#444B8C"/>
				<stop  offset="0.9964" style="stop-color:#26264F"/>
			</linearGradient>
			<path style="fill:url(#SVGID_00000010997695377243069030000000407238063991028625_);" d="M2492,1402.7c4.9-0.7,8.6-7.2,12.1-5.6
				c3.7,1.7,3.8,10.9,1.2,17.5c-2.2,5.4-6.2,8.6-8.4,10.2c4.1,5,9.5,13,12.2,23.6c6,23.5-5.5,43.4-10.1,54.9
				c-20.6,51.9,21.2,129.4,64.2,167.1c34.9,30.7,49.4,16.6,70.7,42.1c41.4,49.7-7.8,110.1,16.3,178.9
				c36.6,104.6,206.8,125.9,213.8,126.7c2.8,0.3,4.6,0.5,7.5,0.8c76.2,7.3,191.6,18.4,268.3-48.5c57.4-50.1,80-132.4,71-203.1
				c-2.4-18.6-12.4-89.2-73.8-143.5c-9.7-8.6-67.4-59.5-140.8-55.6c-38.9,2.1-45.9,16.2-76.1,9.6c-41.4-9.1-68.8-44.5-85.7-66.5
				c-31.2-40.4-20.2-50.2-42-69.7c-42.8-38.2-88.2-3.3-133.5-36.5c-44.6-32.8-22-82.3-64.9-110.4c-44.2-29-124.4-12.9-139.3,25.8
				C2442,1353.7,2476.9,1404.9,2492,1402.7z"/>
		</g>
		<g>
			
				<linearGradient id="SVGID_00000134960595006433552890000004447788864079226811_" gradientUnits="userSpaceOnUse" x1="2224.1624" y1="3272.7959" x2="273.8809" y2="2451.8752">
				<stop  offset="0" style="stop-color:#444B8C"/>
				<stop  offset="0.9964" style="stop-color:#26264F"/>
			</linearGradient>
			<path style="fill:url(#SVGID_00000134960595006433552890000004447788864079226811_);" d="M1285.3,2996.7
				c35,17.8,79,1.5,98.3-36.5c19.3-37.9,6.5-83.1-28.5-100.8c-1.8-0.9-3.7-1.7-5.5-2.4c6.5-21,11.4-42.1,14.7-63.3c2,0,4,0,6.1-0.2
				c39.9-3.6,71.7-40.3,70.8-82c-0.8-41.7-33.9-72.7-73.8-69.1c-2.1,0.2-4.1,0.5-6.2,0.9c-4.2-20.7-9.9-40.9-17.1-60.4
				c1.8-1.1,3.7-2.2,5.5-3.4c34.2-23.9,45.1-71.2,24.4-105.6c-20.7-34.4-65.2-42.8-99.4-18.8c-1.8,1.2-3.4,2.6-5,3.9
				c-13.5-14.9-28.3-28.8-44.3-41.4c1.1-1.8,2.2-3.7,3.2-5.7c19.2-37.9,44.4-79.3,9.1-96.6c-81.6-39.9-116.7-5.7-135.9,32.2
				c-1,2-1.9,4-2.7,6c-19.6-5.5-39.5-9.3-59.6-11.4c0.1-2.1,0.2-4.2,0.2-6.4c-0.8-41.7,11.5-64.3-28.6-65.1
				c-87.4-1.7-117,36.3-116.1,78c0,2.2,0.2,4.3,0.4,6.4c-20,5.7-39.7,13-58.9,21.8c-0.9-1.9-1.9-3.7-2.9-5.5
				c-20.7-34.4-65.2-42.8-99.4-18.8c-34.2,23.9-45.1,71.2-24.4,105.6c1.1,1.8,2.2,3.4,3.4,5c-15.1,15.1-29.3,31.6-42.4,49.2
				c-1.7-1.1-3.4-2.1-5.2-3c-35-17.8-79-1.5-98.3,36.5c-19.3,37.9-6.5,83.1,28.5,100.8c1.8,0.9,3.7,1.7,5.5,2.4
				c-6.5,21-11.4,42.1-14.7,63.3c-2,0-4,0-6.1,0.2c-40,3.6-71.7,40.3-70.8,82c0.8,41.7,33.9,72.7,73.9,69.1c2.1-0.2,4.1-0.5,6.2-0.9
				c4.2,20.7,9.9,40.9,17.1,60.4c-1.8,1.1-3.7,2.2-5.5,3.4c-34.2,23.9-45.1,71.2-24.4,105.6c20.7,34.4,89.2,50.3,123.4,26.4
				c1.8-1.2-20.6-10.1-19-11.4c13.5,14.9,28.3,28.8,44.3,41.4c-1.1,1.8-2.2,3.7-3.2,5.7c-19.3,37.9-6.5,83.1,28.5,100.8
				c35,17.8,79,1.5,98.3-36.5c1-2,1.9-4,2.7-6c19.6,5.5,39.5,9.3,59.6,11.4c-0.1,2.1-0.2,4.2-0.2,6.4c0.8,41.7,33.9,72.7,73.9,69.1
				c39.9-3.6,71.7-40.3,70.8-82c0-2.2-0.2-4.3-0.4-6.4c20-5.7,39.7-13,58.9-21.8c0.9,1.9,1.9,3.7,2.9,5.5
				c20.7,34.4,65.2,42.8,99.4,18.8c34.2-23.9,45.1-71.2,24.4-105.6c-1.1-1.8-2.2-3.4-3.4-5c15.1-15.1,29.3-31.6,42.4-49.2
				C1281.7,2994.8,1283.5,2995.8,1285.3,2996.7z M848.8,3002.3c-127.1-64.5-173.5-228.5-103.6-366.1
				c69.9-137.7,229.6-196.9,356.7-132.4c127.1,64.5,173.5,228.5,103.6,366.1C1135.6,3007.6,975.9,3066.8,848.8,3002.3z"/>
			
				<linearGradient id="SVGID_00000170249214653067486540000011837491875173828014_" gradientUnits="userSpaceOnUse" x1="2225.6138" y1="3269.3484" x2="275.3366" y2="2448.4294">
				<stop  offset="0" style="stop-color:#444B8C"/>
				<stop  offset="0.9964" style="stop-color:#26264F"/>
			</linearGradient>
			<path style="fill:url(#SVGID_00000170249214653067486540000011837491875173828014_);" d="M1370.2,2793.5
				c39.9-3.6,71.7-40.3,70.8-82c-0.8-41.7-33.9-72.7-73.8-69.1c-2.1,0.2-4.1,0.5-6.2,0.9c-4.2-20.7-9.9-40.9-17.1-60.4
				c1.8-1.1,3.7-2.2,5.5-3.4c34.2-23.9,76.5-81.8,52.3-113.9c-45.8-60.8-93.1-34.5-127.3-10.6c-1.8,1.2-3.4,2.6-5,3.9
				c-13.5-14.9-28.3-28.8-44.3-41.4c1.1-1.8,2.2-3.7,3.2-5.7c10.5-20.6,11.4-43.4,4.5-62.7c-33,58.1-65.6,116.5-97.6,175.1
				c101.4,74.3,133.7,220.8,70.3,345.7c-53.7,105.8-160.5,165.2-264.8,157.8c-4.7,12.1-9.2,24.2-14.2,36.1
				c-13.5,32.4-28.9,64.2-44.2,95.9c9.7,1.8,19.4,3.3,29.1,4.3c-0.1,2.1-0.2,4.2-0.2,6.4c0.8,41.7,26.2,77.2,98.6,73.3
				c40.1-2.1,46.9-44.5,46.1-86.2c0-2.2-0.2-4.3-0.4-6.4c20-5.7,39.7-13,58.9-21.8c0.9,1.9,1.9,3.7,2.9,5.5
				c20.7,34.4,92.5,49,126.7,25c34.2-23.9,17.8-77.4-2.9-111.7c-1.1-1.8-2.2-3.4-3.4-5c15.1-15.1,29.3-31.6,42.4-49.2
				c1.7,1.1,3.4,2.1,5.2,3c35,17.8,79,1.5,98.3-36.5c19.2-37.9,6.5-83.1-28.5-100.8c-1.8-0.9-3.7-1.7-5.5-2.4
				c6.5-21,11.4-42.1,14.7-63.3C1366.2,2793.7,1368.2,2793.7,1370.2,2793.5z"/>
			
				<linearGradient id="SVGID_00000079449189346380098830000013855162785914646437_" gradientUnits="userSpaceOnUse" x1="1008.3624" y1="2384.5776" x2="1025.4606" y2="3765.272">
				<stop  offset="0" style="stop-color:#AA80F9"/>
				<stop  offset="0.9964" style="stop-color:#6165D7"/>
			</linearGradient>
			<path style="fill:url(#SVGID_00000079449189346380098830000013855162785914646437_);" d="M1322.9,3001c35,17.8,79,1.5,98.3-36.5
				c19.3-37.9,6.5-83.1-28.5-100.8c-1.8-0.9-3.7-1.7-5.5-2.4c6.5-21,11.4-42.1,14.7-63.3c2,0,4,0,6.1-0.2
				c39.9-3.6,71.7-40.3,70.8-82c-0.8-41.7-33.9-72.7-73.8-69.1c-2.1,0.2-4.1,0.5-6.2,0.9c-4.2-20.7-9.9-40.9-17.1-60.4
				c1.8-1.1,3.7-2.2,5.5-3.4c34.2-23.9,45.1-71.2,24.4-105.6c-20.7-34.4-65.2-42.8-99.4-18.8c-1.8,1.2-3.4,2.6-5,3.9
				c-13.5-14.9-28.3-28.8-44.3-41.4c1.1-1.8,2.2-3.7,3.2-5.7c19.3-37.9,6.5-83.1-28.5-100.8c-35-17.8-79-1.5-98.3,36.5
				c-1,2-1.9,4-2.7,6c-19.6-5.5-39.5-9.3-59.6-11.4c0.1-2.1,0.2-4.2,0.2-6.4c-0.8-41.7-33.9-72.7-73.9-69.1
				c-39.9,3.6-71.7,40.3-70.8,82c0,2.2,0.2,4.3,0.4,6.4c-20,5.7-39.7,13-58.9,21.8c-0.9-1.9-1.9-3.7-2.9-5.5
				c-20.7-34.4-65.2-42.8-99.4-18.8c-34.2,23.9-45.1,71.2-24.4,105.6c1.1,1.8,2.2,3.4,3.4,5c-15.1,15.1-29.3,31.6-42.4,49.2
				c-1.7-1.1-3.4-2.1-5.2-3c-35-17.8-79-1.5-98.3,36.5c-19.3,37.9-6.5,83.1,28.5,100.8c1.8,0.9,3.7,1.7,5.5,2.4
				c-6.5,21-11.4,42.1-14.7,63.3c-2,0-4,0-6.1,0.2c-39.9,3.6-71.7,40.3-70.8,82c0.8,41.7,33.9,72.7,73.9,69.1
				c2.1-0.2,4.1-0.5,6.2-0.9c4.2,20.7,9.9,40.9,17.1,60.4c-1.8,1.1-3.7,2.2-5.5,3.4c-34.2,23.9-45.1,71.2-24.4,105.6
				c20.7,34.4,65.2,42.8,99.4,18.8c1.8-1.2,3.4-2.6,5-3.9c13.5,14.9,28.3,28.8,44.3,41.4c-1.1,1.8-2.2,3.7-3.2,5.7
				c-19.3,37.9-6.5,83.1,28.5,100.8c35,17.8,79,1.5,98.3-36.5c1-2,1.9-4,2.7-6c19.6,5.5,39.5,9.3,59.6,11.4
				c-0.1,2.1-0.2,4.2-0.2,6.4c0.8,41.7,33.9,72.7,73.9,69.1c39.9-3.6,71.7-40.3,70.8-82c0-2.2-0.2-4.3-0.4-6.4
				c20-5.7,39.7-13,58.9-21.8c0.9,1.9,1.9,3.7,2.9,5.5c20.7,34.4,65.2,42.8,99.4,18.8c34.2-23.9,45.1-71.2,24.4-105.6
				c-1.1-1.8-2.2-3.4-3.4-5c15.1-15.1,29.3-31.6,42.4-49.2C1319.4,2999.1,1321.1,3000.1,1322.9,3001z M886.4,3006.6
				c-127.1-64.5-173.5-228.5-103.6-366.1c69.9-137.7,229.6-196.9,356.7-132.4c127.1,64.5,173.5,228.5,103.6,366.1
				C1173.3,3011.9,1013.6,3071.1,886.4,3006.6z"/>
		</g>
	</g>
</g>
</svg>
