<?xml version="1.0" encoding="utf-8"?>

<svg version="1.1" xmlns="http://www.w3.org/2000/svg" xmlns:xlink="http://www.w3.org/1999/xlink" x="0px" y="0px"
	 viewBox="0 0 700 500" style="enable-background:new 0 0 700 500;" xml:space="preserve">
<style type="text/css">
	.st0{fill:#F5F5FF;}
	.st1{fill:#DFDFEB;}
	.st2{fill:#7E9E6E;}
	.st3{fill:none;stroke:#000000;stroke-linecap:round;stroke-miterlimit:10;}
	.st4{fill:#333969;}
	.st5{fill:#7584F1;}
	.st6{fill:none;stroke:#000000;stroke-linejoin:round;stroke-miterlimit:10;}
	.st7{fill:none;stroke:#000000;stroke-linecap:round;stroke-linejoin:round;stroke-miterlimit:10;}
	.st8{fill:#DB9C7F;}
	.st9{fill:#9EC68A;}
	.st10{fill:none;stroke:#424242;stroke-miterlimit:10;}
	.st11{fill:none;stroke:#424242;stroke-linecap:round;stroke-miterlimit:10;}
	.st12{fill:#FFFFFF;}
	.st13{fill:none;stroke:#1A1C30;stroke-width:0.7799;stroke-linecap:round;stroke-linejoin:round;stroke-miterlimit:10;}
	.st14{fill:#D3DDF7;}
</style>
<g id="BACKGROUND">
	<ellipse class="st0" cx="289" cy="220.8" rx="232.8" ry="165.9"/>
</g>
<g id="OBJECTS">
	<ellipse class="st1" cx="540.3" cy="439.7" rx="106.3" ry="14.7"/>
	<ellipse class="st1" cx="317.6" cy="446.8" rx="191.9" ry="16.3"/>
	<g>
		<path class="st2" d="M354.3,157.1c0,0-3.6,20.6-29.4,47.2c0,0-2.9-3.5,2.1-18.2C331.9,171.4,352.8,152.1,354.3,157.1z"/>
		<path class="st3" d="M354.3,157.1c0,0-23.3,16.7-29.4,47.2c0,0-1.2,10.5,2.4,19.5"/>
		<path class="st2" d="M291.7,173.8c0,0,6.5-5-4.7-17.3c-10.7-11.7-22-22.3-44.1-26.1c0,0,6.7,29.9,21.1,37.1
			C278.4,174.5,291.7,173.8,291.7,173.8z"/>
		<path class="st2" d="M238,195.8c0,0,23.1,5,62.2-8c0,0-2.4-4-19.9-5.4C262.8,181,233.5,192.4,238,195.8z"/>
		<path class="st3" d="M238,195.8c0,0,27.7-14.6,62.2-8c0,0,3.5,0.9,7.2,5.7"/>
		<path class="st2" d="M257.2,216.6c0,0,24.7,16.2,63.8,3.2c0,0-7.6-13.8-25.1-15.1C278.4,203.4,252.6,213.3,257.2,216.6z"/>
		<path class="st3" d="M257.2,216.6c0,0,26.6-12.4,63.8,3.2c0,0,4.4,1.9,8,6.8"/>
		<path d="M340.7,137.6c0,0,7.3-0.9-10.5,15.6c-16.8,15.5-14.6,15.6-14.6,15.6S321.9,145.6,340.7,137.6z"/>
		<path class="st2" d="M303.3,176.6c0,0,5.4,2.1,15.2-6.9c9.8-9,13.5-29.1,22.1-32.2C340.7,137.6,319,144.6,303.3,176.6z"/>
		<path class="st3" d="M339,245.6c-11.1-22.3-26.4-47.6-47.3-71.8c0,0-5.1-6.7-23-24.1c-17.8-17.4-25.8-19.3-25.8-19.3"/>
		<path class="st3" d="M338.1,138.6c0,0-20.6,9-34.8,38c-3.4,7,0.7,12.6,4,16.8"/>
	</g>
	<g>
		<path class="st2" d="M525.9,379.2c0,0-17.2,12.7-56.9,3.4c0,0,0.1-6.4,14.3-12.5C497.6,363.9,528.1,373.3,525.9,379.2z"/>
		<path class="st3" d="M524.6,378c0,0-27.2-9.1-55.5,3.8c0,0-9.2,5.2-14.4,13.4"/>
		<path class="st2" d="M468.5,351.2c0,0,7.8,2.4,11.3-14c3.2-15.5,5.1-30.9-4.7-51c0,0-20.3,23-17.6,38.8
			C460.1,340.9,468.5,351.2,468.5,351.2z"/>
		<path d="M526.8,357.3c0,0,6.1,4.1-18.1,4.8c-22.8,0.6-21.3,2.1-21.3,2.1S507.4,351,526.8,357.3z"/>
		<path class="st2" d="M473,362.1c0,0,2.7,5.2,16,4.8c13.3-0.3,29.3-13,37.8-9.6C526.8,357.3,505.9,348.4,473,362.1z"/>
		<path class="st3" d="M438.1,431.7c11.5-22,23-49.3,30.4-80.5c0,0,2.4-8.1,6.1-32.8c3.6-24.7,0.5-32.3,0.5-32.3"/>
		<path class="st3" d="M524.2,356.5c0,0-21.4-6.8-51.2,5.7c-7.2,3-9.3,7.8-12.3,16.7"/>
	</g>
	<g>
		<path class="st4" d="M251.6,232.3c-5.6,0-11-2-15.2-5.5l-11.9-9.9c-4.3-3.6-9.3-5.5-14.5-5.5h-58.9c-5.3,0-9.7,4.3-9.7,9.7v11.2
			v202c0,9.2,7.5,16.7,16.7,16.7h293.6c7.2,0,13-5.8,13-13V245.3c0-7.2-5.8-13-13-13H251.6z"/>
		<path class="st5" d="M464.6,439.1c0,0-20-37.5-22-41.8l-54.6-111.2c-1.4-3-4.3-4.8-7.6-4.8H177.6c-7.4,0-18-3.9-23.7-8.6l-8.2-6.8
			c-4.3-3.6-9.3-5.5-14.5-5.5h-56c-6,0-10,6.1-7.7,11.6l67.8,163.9c3.8,9.2,12.8,15.2,22.7,15.2H461c2,0,3.8-1.7,3.8-3.7
			L464.6,439.1z"/>
		<line class="st6" x1="382.1" y1="291.8" x2="462.2" y2="447.6"/>
		<path class="st6" d="M349.1,318.7h-69c-1.9,0-3.6-0.9-4.6-2.5v0c-2.3-3.6,0.3-8.3,4.6-8.3h69c1.9,0,3.6,0.9,4.6,2.5l0,0
			C356.1,313.9,353.4,318.7,349.1,318.7z"/>
		<g>
			<g>
				<line class="st7" x1="220" y1="372.2" x2="273.7" y2="404.2"/>
				<line class="st7" x1="263.9" y1="370.6" x2="230.2" y2="404.4"/>
			</g>

				<ellipse transform="matrix(0.2666 -0.9638 0.9638 0.2666 -193.3339 521.7817)" class="st7" cx="246.2" cy="387.9" rx="30.5" ry="40.4"/>
		</g>
	</g>
	<g>
		<g>
			<path class="st8" d="M524.4,232.4c1.3-5.6-4.6-12.5-10.2-11.4c-4.6,0.9-6.8,2-7.6,2.2c-1.4,0.5-12.1-0.2-13.4,1.6
				c-0.9,1.3,4.7,2.8,8.3,3.1c0.7,0.1,1,1,0.3,1.4c-3.5,2.2-10.5,6.6-11.1,7.7c-0.8,1.5-4.4,7.2-3.4,7.8c1,0.6,4.1-2.2,6.1-4.2
				c2-2,7.9-3.7,7.9-3.7s-10.2,10.3-11.6,13.1c-2,4.2,3.8,2.4,3.8,2.4c-0.9,2.4,3.9,1.9,5,1c2.2-1.8,9.1-10.1,9.1-9.2
				c0,0.8-7.1,9.9-6.4,12c0.7,2.1,3.6-0.5,5.3-2.8c1.7-2.2,6.6-8.5,6.6-8.5s5.6-4.1,10.2-11.1C523.4,233.7,524.4,232.5,524.4,232.4z
				"/>
			<line class="st3" x1="493.8" y1="252.1" x2="503.5" y2="240.5"/>
		</g>
		<path class="st9" d="M451.1,199.5l35.1-21.9c0.2-0.1,0.4-0.3,0.6-0.5l11.6-11.9c2.5-2.2,6.4-1.7,8.3,1.1l5.7,8.5
			c1.2,1.8,1.2,4.1,0.1,6l-8.1,13.2c-0.6,1-1.5,1.7-2.5,2.2c-6.5,2.8-31.6,13.4-46.5,17.6c-3.7,1-7.3-2-7-5.8l0.4-4.3
			C448.8,202,449.7,200.4,451.1,199.5z"/>
		<path d="M531.9,418.1l-1.9,12.6c0,0-34.7,13.3-31.5,13.5c3.2,0.2,53.2-2.7,53.2-2.7l-2.9-22.9L531.9,418.1z"/>
		<path class="st10" d="M541.5,214.2c0,0,2.8,26.6,4.8,28c2.1,1.4,4.8,2.1,4.8,2.1l-4.5-30.5L541.5,214.2z"/>
		<path d="M596.4,195.9c0,0,14.1,28.7,10,44.7l-78.1-10.7L530,200L596.4,195.9z"/>
		<path class="st11" d="M598.5,201.7c0,0-11,20.4-32.1,22.1"/>
		<path class="st11" d="M580.9,219.4c0,0,4.3,13.2,16.7,13.5"/>
		<path d="M528.3,229.8c0,0-20.9,74.5-21.5,98.4l15.3,92.3c0,0,14.6,7.2,29.8,1.4c0.6-0.2-7.7-47.9-8.3-97l43.6-91.3L528.3,229.8z"
			/>
		<path d="M606.7,237.4l-3.1,89.8l34.4,93.9c0,0-14.4,12.2-32.6,1.1l-37.3-89.4l3.8-65.1l-16.3-9.8l-2.4-28.2L606.7,237.4z"/>
		<polygon class="st12" points="546.3,221 562.9,233.5 586.7,207 528.9,215.2 543.1,233.9 		"/>
		<path d="M613.7,416.5l-3,10.9c0,0-21.9,23.8-18.7,23.8c3.2,0,39.2-14.7,39.2-14.7l-4.6-22.6L613.7,416.5z"/>
		<path class="st11" d="M593.6,208.6c0,0,9.5,23.3,2.6,121.1c0,0,23.9,52.7,36.4,94.4"/>
		<polyline class="st11" points="558.7,260.3 534.9,326.8 545.1,424 		"/>
		<g>
			<g>
				<path class="st8" d="M454.5,212.6c0,0,0.5,2.3-4.7,4.1c-5.2,1.8-8.2,1.2-8.2,1.2s-11.6-13.7-12.1-14.1c-0.5-0.5,0.4-5.7,3.8-7.8
					c2.1-1.3,10.1,0.8,16.2,2.6c4.2,1.3,6.8,5.5,6.1,9.8C455.3,210.1,455,211.7,454.5,212.6z"/>
				<path class="st8" d="M445,209c0,0-9.5-1.4-13.5-4.7c0,0-6-1.2-7.2-0.5c-1.3,0.8-2.3,1.8-5.1,2.3c-2.7,0.5-1.9-1.4,1-4
					c0.8-0.7,3-3.4,4.9-3.8c2.6-0.5,8.2-2.5,8.2-2.5l11.2,13.4"/>
				<path class="st8" d="M441.6,218c0,0-3.8,2.4-5.2,2.3c-1.4-0.1-2.6-0.9-3-3.1c0,0-7.1,1.3-4.9-4.1c0,0-4.3-0.7-4.4-3.5
					c0,0-3.8-1.9-3-5c0.8-3.1,12.9-2.8,12.9-2.8l12.8,6.5L441.6,218z"/>
				<path class="st13" d="M438.9,218.5c0,0,3.6-3.2,3.4-4.5c-0.2-1.3-0.9-2-1.7-1.8c-1.1,0.3-5.3,3.6-7.2,5"/>
				<path class="st13" d="M428.6,213.1c0,0,9.7-1.5,9.8-3c0.1-1.4-0.6-3.3-2.6-2.9c-2.4,0.5-9.3,2.1-11.6,2.1"/>
				<path class="st13" d="M440.7,212.2c0,0,1.8-1.1,1.1-2.3c-0.7-1.2-1.7-1.7-3.7-1.1"/>
				<path class="st13" d="M424,205.3c0,0,0.5-0.7,1.3-1.4"/>
			</g>
			<path class="st4" d="M445,223.3l-0.2,0.1c-1.3,0.7-3,0.3-3.7-1l-25.2-44.9l4.9-2.8l25.2,44.9C446.8,220.9,446.4,222.5,445,223.3z
				"/>
			<path class="st4" d="M428.4,184.6l2.1,3.8c0.6,1,0.3,2.3-0.6,2.8l-4.6,2.6c-0.9,0.5-2.1,0.1-2.7-0.9l-2.2-3.9"/>
			<path class="st4" d="M418.6,147.8c-8.8-16.2-19.7-27.4-26.7-28l0.2-1.5l-3.6,2.4c-6.3,4.3-2.9,23.3,7.4,42.6
				c10.4,19.2,23.9,31.4,30.1,27.1l3.4-2.3l-1-1.3C430.9,179.3,427.1,163.6,418.6,147.8z"/>

				<ellipse transform="matrix(0.8868 -0.4621 0.4621 0.8868 -24.2528 207.2254)" class="st5" cx="410.9" cy="153.1" rx="13.6" ry="39.6"/>
			<path class="st14" d="M418.8,147.8c8.4,15.7,11.8,30.8,7.4,33.7c-4.4,3-14.7-7.3-23.2-23c-8.4-15.7-11.8-30.8-7.4-33.7
				C400,121.8,410.4,132.1,418.8,147.8z"/>
			<path class="st8" d="M445,209c0,0-9.5-1.4-13.5-4.7c0,0-6-1.2-7.2-0.5c-1.3,0.8-2.3,1.8-5.1,2.3c-2.7,0.5-1.9-1.4,1-4
				c0.8-0.7,3-3.4,4.9-3.8c2.6-0.5,8.2-2.5,8.2-2.5l11.2,13.4"/>
			<path class="st13" d="M445,209c0,0-9.5-1.4-13.5-4.7c0,0-6-1.2-7.2-0.5c-1.3,0.8-2.3,1.8-5.1,2.3"/>
			<path class="st4" d="M418.8,147.8c-8.4-15.7-18.8-26-23.2-23c-0.3,0.2-0.6,0.6-0.9,0.9c5,0.3,13.8,9.9,21.2,23.5
				c7.8,14.4,11.2,28.4,8.3,32.8c0.8,0,1.4-0.1,2-0.5C430.6,178.5,427.2,163.4,418.8,147.8z"/>
			<path class="st12" d="M412.9,141.6c4.5,8.3,6.3,16.4,3.9,17.9c-2.3,1.6-7.8-3.9-12.3-12.2c-4.5-8.3-6.3-16.4-3.9-17.9
				C402.9,127.8,408.4,133.3,412.9,141.6z"/>
		</g>
		<path class="st9" d="M580.9,168.4l-7-24.9c-2.6-9.1-7-17.6-13-25c-10.5-13.1-38-11.9-38-11.9L501.7,122c-0.1,0-0.1,0.1-0.2,0.1
			c-12.5,6.9-14.8,17.5-14.4,33.9l0.8,22.1l14.4-13.7l3.6,5c0-0.1,0-0.3,0-0.4l1.7,2.7l-1.7-2.3c0.5,4.6,2.9,16.2,13.9,21.6l6.3,9.9
			l-1.7,13.7c59.1,21.5,73.9-20.7,73.9-20.7L580.9,168.4z"/>
		<path class="st3" d="M499.1,162.1l7.7,9.5c0,0-1.1,14.6,13.6,19.3"/>
		<path class="st9" d="M557.9,181.4l-45,39.2c0,0,8.9,12.5,12.9,12.9l53.9-34.3"/>
		<path class="st3" d="M526.3,208.5c0,0,24.5-27.6,33-31.6"/>
		<path class="st3" d="M546.3,151.6c0,0,1.2,6.2,9,27.9"/>
		<path class="st3" d="M532.1,229.9c0,0,50.4-32.1,50.8-41.4c0.4-9.4-12.7-52.8-12.7-52.8"/>
		<path class="st3" d="M537.6,184.5c0,0,12.1,1.1,15.9-9.9"/>
		<path class="st3" d="M488.5,176.3c0,0,3.3-3.3,6.7,0.4"/>
		<path class="st12" d="M448.8,198.3l7.1-3.3c0,0,8.7,9.5,5.6,17.6l-8.7,2.6C452.9,215.2,456.9,206.3,448.8,198.3z"/>
		<path class="st12" d="M515.7,215.6c0,0,9.4,4,16,15.5l-7.2,5.5c0,0-8.9-12.7-15-14.7L515.7,215.6z"/>
		<g>
			<path class="st12" d="M507.9,105.3l29.5,2.2c0,0,1.1,16.2-16.7,30.6l-8-7.8l-4.4,9.5c0,0-6.8-3.8-7.7-14.8l1.4-13.3L507.9,105.3z
				"/>
			<path class="st8" d="M522.9,106.7c1.1,0.9,1.6,2.3,1.3,3.7c-0.9,5.3-3.8,18.1-9.6,19.7c-7.3,2-11.8-12.3-11.8-12.3l3.6-25.1
				L522.9,106.7z"/>
			<g>
				<path d="M499.9,112.7l-0.1,3.7c-0.1,0-1.3,10.8,2.3,11.2c15.1-2.7,16.1-17.1,17.4-31.3C519.5,96.2,498.4,109.8,499.9,112.7z"/>
				<path class="st8" d="M474.7,85.8c0,0-3.7,35.1,18.1,41.2c21.8,6,27.1-29.6,26.3-41.9c-0.8-12.3-6.2-16.9-21.5-17.4
					C475,66.8,474.7,85.8,474.7,85.8z"/>
				<path d="M494.3,102.8c0.1,1.3-0.5,2.3-1.3,2.4c-0.8,0-1.5-1-1.6-2.2c-0.1-1.3,0.5-2.3,1.3-2.4
					C493.5,100.5,494.2,101.5,494.3,102.8z"/>
				<path class="st3" d="M496.7,96.3c0,0-7.2,3.1-7.9-2.3"/>
				<path class="st3" d="M480,96.3c0,0-2.4,4.1-5.1,2.3"/>
				<path class="st3" d="M476.2,103.6c0,0,1.4-0.4,3.4,0.6"/>
				<path class="st3" d="M497.6,116.8c0,0,2-1.9,3.6-2.3"/>
				<path class="st3" d="M482.8,107.7c0,0-1.3,2.9,1.9,4.2"/>
				<path d="M474.4,93.3c0,0,0.4-10.3,4.9-16.1c0,0,6.3,14.3,33.3,17.2l7.9-1.7c0,0,3.2-16.5-8.1-23c-11.3-6.5-28.6-2.9-34.1,2.9
					C468.9,82.6,474.4,93.3,474.4,93.3z"/>
				<polygon points="507.4,92.5 512.1,101.7 515.4,91.4 				"/>
				<path class="st8" d="M523.7,100.8c-1.3,4.9-5.2,8.2-8.6,7.3c-3.4-0.9-5.1-5.6-3.8-10.5c1.3-4.9,5.2-8.2,8.6-7.3
					C523.4,91.1,525.1,95.9,523.7,100.8z"/>
				<path class="st7" d="M520.3,96.5c0,0-3.8-3.3-5.9,2.7c0,0,2.2,2.4,0.8,4.3c0,0,2.2,0.5,3.3-1.5"/>
				<path class="st7" d="M518.6,98.8c0,0-0.2-1.3-1.7-2.9"/>
				<path class="st12" d="M520.5,107.9c0,1.8-1.5,3.3-3.3,3.3s-3.3-1.5-3.3-3.3c0-1.8,1.5-3.3,3.3-3.3S520.5,106,520.5,107.9z"/>
				<path d="M511.2,74c0,0,4.1-21.4,13.7-17.3c9.6,4.1,13.9,24.6,4.8,26.2c-9.1,1.6-16.2-2.7-16.2-2.7L511.2,74z"/>
				<path class="st3" d="M511.3,80.2c0,0,15.8,13.2,21,1"/>
			</g>
		</g>
		<line class="st11" x1="571.2" y1="267.3" x2="552.8" y2="256.9"/>
	</g>
	<g>
		<path class="st14" d="M154.8,131.3c19.8,0.5,36.2,16.4,37.4,36.2c0.7,11.6-3.8,22.2-11.4,29.7c-1.1,1.1-1.6,2.7-1.4,4.2l2.9,16.9
			l-17.5-10.2c-1-0.6-2.2-0.8-3.3-0.6c-4.3,0.9-8.8,1-13.5,0.3c-17.3-2.6-30.8-17-32.4-34.4C113.2,150.2,131.8,130.7,154.8,131.3z"
			/>
		<g>
			<path d="M152,183.1l-0.1-9.2c1.3-0.3,2.6-0.8,3.7-1.3c1.1-0.5,2.1-1.1,2.9-1.8c0.8-0.7,1.5-1.5,2.1-2.3c0.6-0.9,1-1.8,1.3-2.8
				c0.3-1,0.4-2,0.4-3.1c0-1.6-0.4-3-1.1-4.4c-0.8-1.4-1.9-2.5-3.3-3.3c-1.4-0.9-3.1-1.3-5.1-1.3c-2.1,0-4.1,0.6-5.9,1.7
				c-1.8,1.2-3.2,3.1-4.1,5.9l-1-0.7c0.8-2.6,2.2-4.7,4.2-6.1c2-1.4,4.2-2.1,6.7-2.1c2.1,0,4,0.5,5.6,1.4c1.6,0.9,2.9,2.1,3.8,3.7
				c0.9,1.5,1.4,3.3,1.4,5.2c0,1.5-0.2,2.8-0.7,4.1c-0.5,1.3-1.2,2.4-2.1,3.5c-0.9,1.1-2,2-3.2,2.8c-1.3,0.8-2.7,1.4-4.3,1.8
				l-0.1,8.4H152z M151.3,190c0-0.5,0.1-0.9,0.4-1.2c0.3-0.3,0.6-0.5,1-0.5c0.5,0,0.9,0.1,1.1,0.4c0.2,0.3,0.3,0.7,0.3,1.2
				c0,0.4-0.1,0.8-0.4,1.1c-0.2,0.3-0.6,0.5-1.1,0.5c-0.5,0-0.8-0.1-1.1-0.4C151.4,190.9,151.3,190.5,151.3,190z"/>
		</g>
	</g>
	<path class="st11" d="M598.7,201.4"/>
</g>
</svg>
