<?xml version="1.0" encoding="utf-8"?>
<!-- Generator: Adobe Illustrator 27.5.0, SVG Export Plug-In . SVG Version: 6.00 Build 0)  -->
<svg version="1.1" xmlns="http://www.w3.org/2000/svg" xmlns:xlink="http://www.w3.org/1999/xlink" x="0px" y="0px"
	 viewBox="0 0 700 500" style="enable-background:new 0 0 700 500;" xml:space="preserve">
<style type="text/css">
	.st0{fill:#F5F5FF;}
	.st1{fill:#DFDFEB;}
	.st2{fill:#D3DDF7;}
	.st3{fill:none;stroke:#424242;stroke-miterlimit:10;}
	.st4{fill:#9EC68A;}
	.st5{fill:#7E9E6E;}
	.st6{fill:none;stroke:#000000;stroke-linecap:round;stroke-miterlimit:10;}
	.st7{fill:#333969;}
	.st8{fill:#7584F1;}
	.st9{fill:none;stroke:#000000;stroke-linejoin:round;stroke-miterlimit:10;}
	.st10{fill:none;stroke:#000000;stroke-linecap:round;stroke-linejoin:round;stroke-miterlimit:10;}
	.st11{fill:#DB9C7F;}
	.st12{fill:none;stroke:#FFFFFF;stroke-miterlimit:10;}
	.st13{fill:#FFFFFF;}
</style>
<g id="BACKGROUND">
	<ellipse class="st0" cx="380" cy="218.1" rx="232.8" ry="165.9"/>
</g>
<g id="OBJECTS">
	<ellipse class="st1" cx="176.7" cy="444.6" rx="106.3" ry="16.3"/>
	<ellipse class="st1" cx="350.3" cy="447.9" rx="191.9" ry="16.3"/>
	<g>
		<path class="st2" d="M298.1,44.9c-19.8,0.5-36.2,16.4-37.4,36.2c-0.7,11.6,3.8,22.2,11.4,29.7c1.1,1.1,1.6,2.7,1.4,4.2l-2.9,16.9
			l17.5-10.2c1-0.6,2.2-0.8,3.3-0.6c4.3,0.9,8.8,1,13.5,0.3c17.3-2.6,30.8-17,32.4-34.4C339.7,63.8,321.1,44.3,298.1,44.9z"/>
		<g>
			<path d="M297.5,96.8l-0.1-9.2c1.3-0.3,2.6-0.8,3.7-1.3c1.1-0.5,2.1-1.1,2.9-1.8c0.8-0.7,1.5-1.5,2.1-2.3c0.6-0.9,1-1.8,1.3-2.8
				c0.3-1,0.4-2,0.4-3.1c0-1.6-0.4-3-1.1-4.4c-0.8-1.4-1.9-2.5-3.3-3.3c-1.4-0.9-3.1-1.3-5.1-1.3c-2.1,0-4.1,0.6-5.9,1.7
				c-1.8,1.2-3.2,3.1-4.1,5.9l-1-0.7c0.8-2.6,2.2-4.7,4.2-6.1c2-1.4,4.2-2.1,6.7-2.1c2.1,0,4,0.5,5.6,1.4c1.6,0.9,2.9,2.1,3.8,3.7
				c0.9,1.5,1.4,3.3,1.4,5.2c0,1.5-0.2,2.8-0.7,4.1c-0.5,1.3-1.2,2.4-2.1,3.5c-0.9,1.1-2,2-3.2,2.8c-1.3,0.8-2.7,1.4-4.3,1.8
				l-0.1,8.4H297.5z M296.8,103.6c0-0.5,0.1-0.9,0.4-1.2c0.3-0.3,0.6-0.5,1-0.5c0.5,0,0.9,0.1,1.1,0.4c0.2,0.3,0.3,0.7,0.3,1.2
				c0,0.4-0.1,0.8-0.4,1.1c-0.2,0.3-0.6,0.5-1.1,0.5c-0.5,0-0.8-0.1-1.1-0.4S296.8,104.1,296.8,103.6z"/>
		</g>
	</g>
	<g>
		<path d="M186.7,421.6l1.7,12.9c0,0,32,13.6,29.1,13.8c-3,0.2-49-2.8-49-2.8l2.7-23.4L186.7,421.6z"/>
		<path class="st3" d="M177.8,211.5c0,0-2.6,24.6-4.5,25.8c-1.9,1.3-4.5,1.9-4.5,1.9l4.1-28.1L177.8,211.5z"/>
		<g>
			<path d="M127.2,194.6c0,0-13,29.3-9.2,45.6l71.9-11l-1.5-30.4L127.2,194.6z"/>
			<path d="M190,229.3c0,0,0.4,70.3,0.9,94.8c0.5,24.5,4.8,100.2,4.8,100.2s-13.4,7.4-27.4,1.4c-1.1-0.5-13.2-197-13.2-197
				L190,229.3z"/>
			<path d="M119.2,231.5L88.9,424.9c0,0,13.3,12.4,30,1.1l30.9-157.9l15-10.1l2.2-28.8L119.2,231.5z"/>
			<path d="M111.2,420.1l2.8,11.1c0,0,20.2,24.3,17.2,24.3c-3,0-36.1-15-36.1-15l4.3-23.1L111.2,420.1z"/>
			<path class="st3" d="M130.3,206.5c0,0-19.1,80.4-33.4,222.5"/>
			<path class="st3" d="M143.4,215.1c0,0-6.7,16.7-18.1,17"/>
			<polyline class="st3" points="171.7,426.8 161.9,260.4 171.5,250.4 			"/>
			<path class="st4" d="M171.6,110.4c5-1,8.6-1.8,8.6-1.8l31,17c0.1,0,0.1,0.1,0.2,0.1c10.2,5.6,14.7,15.1,14.4,28.5l1.5,19.3
				l-16.8-13.7l-14.2,27.4l-9,32.4c-48.2,17.5-66.9-13.9-66.9-13.9l16-34.6l6.5-31.9C145.8,122.8,155.3,113.7,171.6,110.4z"/>
		</g>
		<g>
			<path class="st5" d="M432.2,165c0,0-4.9,20.3-32.4,45.2c0,0-2.6-3.7,3.2-18C409,177.8,431.1,159.9,432.2,165z"/>
			<path class="st6" d="M432.2,165c0,0-24.3,15.1-32.4,45.2c0,0-1.9,10.4,1.1,19.6"/>
			<path class="st5" d="M368.7,177.6c0,0,6.8-4.5-3.6-17.6c-9.9-12.4-20.5-23.6-42.3-28.9c0,0,4.7,30.3,18.7,38.3
				C355.4,177.5,368.7,177.6,368.7,177.6z"/>
			<path class="st5" d="M313.8,196.2c0,0,22.7,6.5,62.5-4c0,0-2.2-4.2-19.5-6.7C339.4,183,309.4,192.5,313.8,196.2z"/>
			<path class="st6" d="M313.8,196.2c0,0,28.5-12.8,62.5-4c0,0,3.5,1.1,6.8,6.2"/>
			<path class="st5" d="M331.5,218.2c0,0,23.6,17.8,63.4,7.3c0,0-6.7-14.2-24.1-16.7C353.5,206.3,327.2,214.6,331.5,218.2z"/>
			<path class="st6" d="M331.5,218.2c0,0,27.3-10.7,63.4,7.3c0,0,4.2,2.2,7.5,7.3"/>
			<path d="M419.9,144.7c0,0,7.3-0.4-11.5,14.9c-17.7,14.4-15.6,14.7-15.6,14.7S400.7,151.4,419.9,144.7z"/>
			<path class="st5" d="M380.1,181.3c0,0,5.3,2.4,15.7-5.9c10.4-8.4,15.3-28.1,24.1-30.7C419.9,144.7,397.8,150.3,380.1,181.3z"/>
			<path class="st6" d="M411.3,252.3c-9.6-22.9-23.3-49.2-42.6-74.7c0,0-4.7-7-21.4-25.6c-16.7-18.5-24.5-20.9-24.5-20.9"/>
			<path class="st6" d="M417.3,145.6c0,0-21.1,7.6-37.1,35.7c-3.9,6.8-0.1,12.6,3,17"/>
		</g>
		<g>
			<path class="st5" d="M631.1,409.9c0,0-20.5,6.1-54.7-16c0,0,2.2-6,17.7-6.9C609.6,386,635.2,405.1,631.1,409.9z"/>
			<path class="st6" d="M630.4,408.4c0,0-22.5-17.7-53.5-15.1c0,0-10.4,1.8-18.1,7.8"/>
			<path class="st5" d="M586.5,364.2c0,0,6.6,4.9,15.3-9.4c8.3-13.5,15.2-27.3,12.8-49.6c0,0-26.9,14.8-29.7,30.6
				C582.1,351.6,586.5,364.2,586.5,364.2z"/>
			<path d="M639.4,389.6c0,0,4.3,5.9-18.7-1.6c-21.7-7.1-20.8-5.2-20.8-5.2S623.3,377.1,639.4,389.6z"/>
			<path class="st5" d="M587.1,376c0,0,0.8,5.8,13.4,10c12.6,4.2,31.9-2.4,38.8,3.7C639.4,389.6,622.7,374.1,587.1,376z"/>
			<path class="st6" d="M530.8,429.7c18.3-16.8,38.3-38.7,55.7-65.5c0,0,5-6.8,16.8-28.8c11.7-22,11.3-30.2,11.3-30.2"/>
			<path class="st6" d="M637.2,387.9c0,0-17.9-13.6-50.1-11.9c-7.8,0.4-11.4,4.2-17.2,11.5"/>
		</g>
		<path class="st7" d="M418.1,206c6.3,0,12.3-2.2,17.2-6.2l13.4-11.1c4.8-4,10.5-6.2,16.4-6.2h66.3c6,0,10.9,4.9,10.9,10.9V206
			v227.3c0,10.4-8.4,18.8-18.8,18.8H192.9c-8.1,0-14.6-6.5-14.6-14.6V220.6c0-8.1,6.5-14.6,14.6-14.6H418.1z"/>
		<path class="st8" d="M178.3,438.7c0,0,22.5-42.2,24.7-47l61.5-125.2c1.5-3.3,4.9-5.5,8.5-5.5h228.4c8.3,0,20.3-4.4,26.7-9.7
			l9.2-7.7c4.8-4,10.5-6.2,16.4-6.2h63.1c6.7,0,11.3,6.8,8.7,13L549.2,435c-4.3,10.3-14.4,17.1-25.6,17.1H182.5
			c-2.2,0-4.3-1.9-4.3-4.1L178.3,438.7z"/>
		<line class="st9" x1="271.2" y1="272.9" x2="181" y2="448.2"/>
		<path class="st9" d="M308.4,303.1H386c2.1,0,4.1-1.1,5.2-2.8l0,0c2.6-4.1-0.3-9.4-5.2-9.4h-77.7c-2.1,0-4.1,1.1-5.2,2.8h0
			C300.5,297.8,303.5,303.1,308.4,303.1z"/>
		<g>
			<g>
				<line class="st10" x1="453.7" y1="363.4" x2="393.2" y2="399.4"/>
				<line class="st10" x1="404.2" y1="361.6" x2="442.2" y2="399.6"/>
			</g>
			
				<ellipse transform="matrix(0.9638 -0.2666 0.2666 0.9638 -86.2615 126.9009)" class="st10" cx="424.2" cy="381.1" rx="45.5" ry="34.4"/>
		</g>
		<path class="st4" d="M193.8,192.1l11.2,12.6c0,0-10.5,12.4-21.2,5.1l-1.7-2.5L193.8,192.1z"/>
		<path class="st6" d="M167.7,117c0,0,15.4,4,3.3,48.4"/>
		<path class="st6" d="M194.7,193.5c-8.3-9.3-18.4-21-24.4-29.1"/>
		<path class="st6" d="M183.8,209.8c-8-8.2-18.7-19.8-23.4-24.1c-7.3-6.7-14.9-17.5-12.4-31.4l-0.3-11.1"/>
		<path class="st4" d="M231.6,203.8c-9.8-5.3-14.3-11.9-18.1-16.7c-9-11.6-12.2-13-9.6-26.5l0.1-14.1l19.6,21.2
			c7.5,9.9,24.7,27.7,31.1,34.7C254.7,202.3,247.2,212.3,231.6,203.8z"/>
		<g>
			<path class="st11" d="M191.7,200.3c0.9-0.2,1.8-0.3,2.8-0.2c3.4,0.4,12.3,1.3,13.4,1.3c1.3,0,2.3-1.8,4.9,4.9
				c2.7,6.8,2.2,7.4,2.2,8.3c0,0.9-2,13.9-4.1,11.9c-2.1-2-1.8-3.1-1.8-3.1s-1.1,5.3-1.7,5.1c-0.6-0.2-2.8-0.2-2.4-3.9
				c0,0-1.2,3.6-2.4,2.7c-1.2-0.9-1-4.8-1-4.8s-1.3,2.9-2.8,1c-1.5-2-0.4-6.5-0.4-6.5l-1.3-3.4l-2.7-1.2c0,0-9.2,2.4-10.8-4
				C182.3,203.4,188.6,201.1,191.7,200.3z"/>
			<g>
				<polyline class="st6" points="210.2,208.6 211.9,215.8 209.1,223.4 				"/>
				<polyline class="st6" points="205.7,208.3 208,215.7 204.9,224.5 				"/>
				<polyline class="st6" points="201.8,209.1 203.2,216.3 201.7,221.6 				"/>
			</g>
		</g>
		<path class="st6" d="M194.3,71c-3.3,3.1-3.3,6.8-3.3,6.8s-1.1-1.4-2.5-1.8"/>
		<g>
			<g>
				<path class="st11" d="M241,198.2c3.1-0.8,6.4-0.2,9.2,1.2c3.7,1.9,9.6,4.9,10.4,5.1c1.1,0.3,1.9-0.3,2,6.6
					c0.1,2.7,0.1,4.6-0.2,5.4c-0.2,0.8-5.7,9-7.5,7.9c0,0-0.1-0.1-0.1-0.1c-0.5,0.6-1.1,1.4-1.7,1.9c-0.5,0.4-3,0.3-1.7-3
					c0,0-1.7,3.8-3.1,3.3c-1.8-0.7-1.5-2.4-0.8-3.8c-0.8,1.1-1.8,2-2.6,1c-1.4-1.9,1.8-8.6,1.8-8.6l0.4-4l-2.4-2.2
					c0,0-8.7,0.2-8.5-6C236.2,200.1,238.5,198.8,241,198.2z"/>
				<g>
					<polyline class="st6" points="260.2,208.6 260.1,216 254.7,223.8 					"/>
					<polyline class="st6" points="256.4,208.7 256,216.3 251.4,223.2 					"/>
					<polyline class="st6" points="252.5,208.9 252,215.3 248.1,221.7 					"/>
				</g>
			</g>
			<path class="st11" d="M241.4,207.2c0,0,0.9,6.6-1.3,8.1c-2.1,1.4-5.6-12.2-3.2-12.4C240.5,202.6,241.4,207.2,241.4,207.2z"/>
			<path class="st6" d="M244.3,206.2c0,0-2.1,0.3-2.7,2.8"/>
		</g>
		<path class="st6" d="M203.2,174.3l10.3-13.4c9.4-12.5,3.1-25.6,3.1-25.6"/>
		<path class="st6" d="M227.3,173.5c0,0-6.1-8.4-7.4-4.7"/>
		<g>
			<line class="st12" x1="229.7" y1="103.5" x2="227.9" y2="103.1"/>
			<path class="st13" d="M193.1,101.9l-12.9,6.8c0,0-0.3,15.4,14.2,27l6.5-6.3l6.6,6.6c0,0,2.5-2,3.2-10.9l-1.2-10.8L193.1,101.9z"
				/>
			<polyline class="st10" points="209.6,114.2 193.1,101.9 180.2,108.6 			"/>
			<path class="st11" d="M189.4,104.2c0,0,4,23.4,9.9,25.1c5.9,1.7,9.6-10,9.6-10l-11.5-31.9L189.4,104.2z"/>
			<path d="M211.1,122l0.1,2.9c0.1,0-0.1,0.9-3,1.2c-12.7-0.4-13.7-14.6-14.7-26C193.5,100.2,212.3,119.8,211.1,122z"/>
			<path class="st11" d="M228.9,90.2c0,0,3.3,29.7-14.1,34.5c-17.4,4.8-21.6-23.5-21-33.4c0.6-9.8,5.5-14.7,17.7-15.1
				C229.5,75.6,228.9,90.2,228.9,90.2z"/>
			<path d="M202.8,82.2c0,0-0.3,6.2-4.5,7.5l-3,9.2c0,0-2.5-4.1-5.2-5.5c0,0-3-12.1,0.8-16.9c3.8-4.8,9.1-7.2,21.9-6.2
				c9.7,0.8,15.4,7.7,17.3,11.2c0.6,1.1,2.1,4.3-1.4,7.5c0,0,0-2.4-2-5.1C226.8,83.8,222.2,93.3,202.8,82.2"/>
			<path class="st11" d="M186.1,100.4c1.1,3.9,4.2,6.5,6.9,5.8s4.1-4.5,3-8.4c-1.1-3.9-4.2-6.5-6.9-5.8
				C186.4,92.7,185.1,96.5,186.1,100.4z"/>
			<path d="M211.2,101.7c0,1,0.4,1.9,1.1,1.9c0.6,0,1.2-0.8,1.2-1.8c0-1-0.4-1.9-1.1-1.9C211.8,99.9,211.3,100.7,211.2,101.7z"/>
			<path d="M224.6,102.5c-0.1,0.9,0.3,1.8,0.9,1.8c0.6,0.1,1.1-0.7,1.2-1.6c0.1-0.9-0.3-1.8-0.9-1.8
				C225.3,100.9,224.7,101.6,224.6,102.5z"/>
			<path class="st6" d="M207.4,93.7c0,0,4.6,1,4.9-3.4"/>
			<path class="st6" d="M223,93.4c0,0,1.2,4.1,4.6,1.7"/>
			<path d="M210.4,118c0,0-1.5-6.2-6.2-2.6L210.4,118z"/>
			<path class="st10" d="M188.9,97c0,0,3.1-2.6,4.7,2.2c0,0-1.8,1.9-0.7,3.4c0,0-1.8,0.4-2.6-1.2"/>
			<path class="st10" d="M190.2,98.8c0,0,0.2-1.1,1.4-2.3"/>
			<path class="st12" d="M222,102.4c0,2.9,1.8,5.2,3.9,5.2c2.2,0,3.9-2.3,3.9-5.2s-1.8-5.2-3.9-5.2C223.7,97.2,222,99.5,222,102.4z"
				/>
			<path class="st12" d="M207.3,101.7c0,3,2.2,5.5,5,5.5c2.8,0,5-2.5,5-5.5c0-3-2.2-5.5-5-5.5C209.5,96.2,207.3,98.6,207.3,101.7z"
				/>
			<path class="st12" d="M222.2,103.9c0,0-1.2-5.2-5.2-0.4"/>
			<line class="st12" x1="207.4" y1="99.6" x2="195.7" y2="97"/>
			<path class="st6" d="M222.6,106.2c0.6,0.7,0.7,1.6,0.4,2.5c-0.3,0.9-1.2,1.5-2.2,1.5c-0.4,0-0.9-0.1-1.3-0.3
				c-0.2-0.1-0.5-0.3-0.7-0.2c-1,0.4-2.1-0.4-1.8-1.1"/>
		</g>
	</g>
</g>
</svg>
